<svg xmlns="http://www.w3.org/2000/svg" width="1600" height="900" viewBox="0 0 1600 900">
  <defs>
    <linearGradient id="sky" x1="0" x2="0" y1="0" y2="1">
      <stop offset="0" stop-color="#c7e2b1" />
      <stop offset="0.5" stop-color="#b8d09d" />
      <stop offset="1" stop-color="#527c56" />
    </linearGradient>
    <linearGradient id="ground" x1="0" x2="1" y1="0" y2="1">
      <stop offset="0" stop-color="#6b8e4a" />
      <stop offset="1" stop-color="#234f34" />
    </linearGradient>
  </defs>
  <rect width="1600" height="900" fill="url(#sky)" />
  <circle cx="1290" cy="118" r="72" fill="#fff0a4" opacity="0.88" />
  <g opacity="0.88">
    <ellipse cx="180" cy="120" rx="90" ry="34" fill="#eef5e6" />
    <ellipse cx="248" cy="113" rx="54" ry="30" fill="#eef5e6" />
    <ellipse cx="145" cy="116" rx="40" ry="24" fill="#eef5e6" />
  </g>
  <g opacity="0.88">
    <ellipse cx="1180" cy="125" rx="90" ry="34" fill="#eef5e6" />
    <ellipse cx="1240" cy="116" rx="62" ry="30" fill="#eef5e6" />
    <ellipse cx="1125" cy="102" rx="40" ry="24" fill="#eef5e6" />
  </g>
  <path d="M0 660C127 572 220 618 338 640C485 575 576 575 690 650C837 596 888 581 999 638C1048 690 1197 667 1294 646C969 710 497 573 0 599Z" fill="#476a44" opacity="0.75" />
  <path d="M0 760C200 640 373 655 575 672C740 710 908 695 1050 665C1217 650 1325 612 1600 672V900H0Z" fill="url(#ground)" />
  <path d="M448 900C552 740 633 720 742 760C807 804 965 805 1037 760C1140 730 1204 755 1285 900Z" fill="#875b31" opacity="0.78" />

  <!-- trees -->
  <g fill="#244c33">
    <rect x="82" y="640" width="18" height="120" />
    <circle cx="90" cy="624" r="36" />
    <rect x="118" y="600" width="19" height="150" />
    <circle cx="128" cy="586" r="38" />
  </g>
  <g fill="#244c33">
    <rect x="1240" y="620" width="20" height="160" />
    <circle cx="1252" cy="590" r="40" />
    <rect x="1403" y="625" width="18" height="144" />
    <circle cx="1412" cy="610" r="36" />
  </g>
  <g fill="#244c33">
    <rect x="315" y="665" width="16" height="100" />
    <circle cx="324" cy="640" r="34" />
    <rect x="1340" y="655" width="20" height="120" />
    <circle cx="1354" cy="616" r="34" />
  </g>
</svg>
